#!OML:ASF H:\Martial Arts Walks\Project 1\Capture day 1\Session 1\male.ASF
:FULLY-SPECIFIED
:DEGREES
2492
root -3.59991 14.3605 -43.0588 13.1839 -25.8489 -20.7153
lowerback 9.7927 3.32064 11.455
upperback -2.67735 6.23012 4.48334
thorax -7.70978 2.58268 -2.56977
lowerneck -1.246 2.51041 -2.13278
upperneck 6.54652 3.14834 4.58131
head 2.17135 1.63078 1.89816
rclavicle 2.88238e-014 1.51076e-014
rhumerus -48.8585 14.3539 -80.1125
rradius 47.047
rwrist 14.7776
rhand -5.03447 -46.2806
rfingers 7.12502
rthumb 20.7603 -75.1901
lclavicle 2.88238e-014 1.51076e-014
lhumerus -25.7057 1.54109 79.968
lradius 33.4223
lwrist -4.96019
lhand -27.1343 35.0743
lfingers 7.12502
lthumb -0.549798 65.0534
rfemur 11.7079 -7.69082 21.9998
rtibia 33.307
rfoot -27.1183 -28.0887
rtoes -19.0919
lfemur -67.7328 29.8115 -5.86918
ltibia 73.5168
lfoot -8.46931 1.3759
ltoes 16.2537
2493
root -3.59717 14.3552 -43.0574 13.1151 -25.7598 -20.7512
lowerback 9.86479 3.30877 11.5568
upperback -2.67094 6.23876 4.4961
thorax -7.73586 2.58046 -2.61719
lowerneck -1.27835 2.47907 -2.08815
upperneck 6.53865 3.10837 4.53308
head 2.17714 1.61108 1.87439
rclavicle 5.28519e-014 -9.93923e-015
rhumerus -48.8515 14.2132 -79.9483
rradius 47.113
rwrist 14.7765
rhand -4.64693 -46.3906
rfingers 7.12502
rthumb 21.1326 -75.2589
lclavicle 5.28519e-014 -9.93923e-015
lhumerus -25.5718 1.56401 80.0265
lradius 33.0598
lwrist -5.2459
lhand -27.2974 34.571
lfingers 7.12502
lthumb -0.707317 64.5496
rfemur 11.8159 -7.65276 22.0766
rtibia 33.2819
rfoot -27.0788 -28.2034
rtoes -19.1087
lfemur -67.6895 29.6988 -5.79421
ltibia 73.5542
lfoot -8.49357 1.37045
ltoes 16.2828
2494
root -3.59507 14.3516 -43.0574 13.06 -25.6777 -20.7443
lowerback 9.92217 3.26137 11.5402
upperback -2.69547 6.19076 4.56457
thorax -7.81196 2.55424 -2.53421
lowerneck -1.22426 2.48712 -2.11615
upperneck 6.55058 3.12433 4.44421
head 2.17129 1.6156 1.84964
rclavicle 7.62091e-014 5.1684e-015
rhumerus -48.8822 14.2388 -79.7624
rradius 47.1905
rwrist 14.8327
rhand -3.03418 -46.7399
rfingers 7.12502
rthumb 22.6812 -75.427
lclavicle 7.62091e-014 5.1684e-015
lhumerus -25.7061 1.76186 80.093
lradius 32.997
lwrist -5.59371
lhand -27.1662 34.4481
lfingers 7.12502
lthumb -0.580629 64.427
rfemur 11.8851 -7.68581 22.0946
rtibia 33.2817
rfoot -27.1901 -28.1642
rtoes -19.0318
lfemur -67.6724 29.5983 -5.78101
ltibia 73.5841
lfoot -8.54453 1.36025
ltoes 16.4227
2495
root -3.59325 14.3463 -43.0565 13.0114 -25.5805 -20.741
lowerback 9.93825 3.2592 11.605
upperback -2.6856 6.19754 4.56526
thorax -7.80385 2.55498 -2.57002
lowerneck -1.26651 2.45319 -2.06852
upperneck 6.54572 3.08034 4.4043
head 2.17991 1.59429 1.8283
rclavicle 2.35063e-014 1.27222e-013
rhumerus -48.8807 14.033 -79.5834
rradius 47.2875
rwrist 14.8877
rhand -2.99494 -46.9442
rfingers 7.12502
rthumb 22.7188 -75.6267
lclavicle 2.35063e-014 1.27222e-013
lhumerus -25.7167 1.7876 80.1552
lradius 32.9222
lwrist -5.92454
lhand -27.0383 34.1662
lfingers 7.12502
lthumb -0.457048 64.1455
rfemur 11.9449 -7.71877 22.12
rtibia 33.2966
rfoot -27.234 -28.1941
rtoes -18.9904
lfemur -67.6899 29.4983 -5.77413
ltibia 73.6291
lfoot -8.58542 1.3483
ltoes 16.5321
2496
root -3.59144 14.3387 -43.055 12.9611 -25.5201 -20.7793
lowerback 9.95324 3.25256 11.6776
upperback -2.65871 6.19943 4.60018
thorax -7.78034 2.55508 -2.57237
lowerneck -1.28697 2.43794 -2.06632
upperneck 6.53578 3.06204 4.37743
head 2.18131 1.58475 1.81907
rclavicle 1.21507e-014 3.93594e-014
rhumerus -48.7781 13.9018 -79.3984
rradius 47.2155
rwrist 14.9414
rhand -3.06124 -46.9136
rfingers 7.12502
rthumb 22.6552 -75.6039
lclavicle 1.21507e-014 3.93594e-014
lhumerus -25.6928 1.81619 80.2402
lradius 32.7826
lwrist -6.17301
lhand -27.1564 33.9972
lfingers 7.12502
lthumb -0.57112 63.9761
rfemur 12.0298 -7.7105 22.174
rtibia 33.3009
rfoot -27.2355 -28.2844
rtoes -18.9597
lfemur -67.6963 29.4806 -5.73704
ltibia 73.6982
lfoot -8.60336 1.29367
ltoes 16.5437
2497
root -3.5897 14.3325 -43.0527 12.9366 -25.4466 -20.8439
lowerback 9.96654 3.2466 11.7702
upperback -2.64998 6.2068 4.63688
thorax -7.77366 2.55537 -2.58467
lowerneck -1.29085 2.42579 -2.06174
upperneck 6.53927 3.0457 4.3755
head 2.18382 1.57675 1.8175
rclavicle 6.41081e-014 1.74931e-014
rhumerus -48.8508 13.7546 -79.2339
rradius 47.3621
rwrist 14.954
rhand -3.0308 -46.8021
rfingers 7.12502
rthumb 22.6844 -75.4888
lclavicle 6.41081e-014 1.74931e-014
lhumerus -25.6649 1.82859 80.3213
lradius 32.6236
lwrist -6.3918
lhand -27.1366 34.0509
lfingers 7.12502
lthumb -0.552023 64.03
rfemur 12.1081 -7.69289 22.2779
rtibia 33.3081
rfoot -27.2384 -28.372
rtoes -18.8643
lfemur -67.7276 29.4657 -5.67839
ltibia 73.7767
lfoot -8.63103 1.22625
ltoes 16.5825
2498
root -3.58911 14.3286 -43.0491 12.9507 -25.3728 -20.891
lowerback 9.86908 3.23476 11.853
upperback -2.61274 6.18248 4.66542
thorax -7.67499 2.54721 -2.58695
lowerneck -1.33114 2.41981 -2.0521
upperneck 6.52558 3.03865 4.36936
head 2.18704 1.57368 1.81428
rclavicle 1.16041e-014 -3.02153e-014
rhumerus -48.7696 13.7043 -79.1201
rradius 47.3592
rwrist 14.8658
rhand -3.12739 -46.6947
rfingers 7.12502
rthumb 22.5917 -75.3927
lclavicle 1.16041e-014 -3.02153e-014
lhumerus -25.6974 1.99231 80.36
lradius 32.6255
lwrist -6.75457
lhand -25.8967 35.2913
lfingers 7.12502
lthumb 0.64552 65.27
rfemur 12.1142 -7.69021 22.3497
rtibia 33.3229
rfoot -27.1651 -28.5087
rtoes -18.9988
lfemur -67.8049 29.4846 -5.67005
ltibia 73.865
lfoot -8.70316 1.1322
ltoes 16.7428
2499
root -3.58822 14.3242 -43.0452 12.9718 -25.3217 -20.9445
lowerback 9.81761 3.22902 11.9303
upperback -2.61267 6.17752 4.69137
thorax -7.64188 2.54359 -2.59619
lowerneck -1.32352 2.416 -2.06148
upperneck 6.512 3.03141 4.41654
head 2.18088 1.57091 1.83073
rclavicle -1.75179e-014 5.96354e-015
rhumerus -48.7282 13.6519 -79.0215
rradius 47.3153
rwrist 14.768
rhand -3.04293 -46.7661
rfingers 7.12502
rthumb 22.6728 -75.4543
lclavicle -1.75179e-014 5.96354e-015
lhumerus -25.6651 1.90939 80.4333
lradius 32.4585
lwrist -6.87545
lhand -27.1125 34.0514
lfingers 7.12502
lthumb -0.528772 64.0305
rfemur 12.1308 -7.73571 22.3912
rtibia 33.3538
rfoot -27.2662 -28.4414
rtoes -18.8434
lfemur -67.8746 29.5243 -5.64172
ltibia 73.9511
lfoot -8.75833 1.00485
ltoes 16.8384
2500
root -3.58828 14.3178 -43.0429 12.9624 -25.291 -20.9162
lowerback 9.7521 3.2306 11.9137
upperback -2.59285 6.16453 4.69661
thorax -7.58572 2.54236 -2.57456
lowerneck -1.37049 2.40902 -2.05883
upperneck 6.50762 3.02085 4.44771
head 2.18805 1.56699 1.84119
rclavicle 2.40032e-014 2.78299e-014
rhumerus -48.6308 13.6535 -78.957
rradius 47.2085
rwrist 14.574
rhand -3.33481 -46.4206
rfingers 7.12502
rthumb 22.3926 -75.1427
lclavicle 2.40032e-014 2.78299e-014
lhumerus -25.5216 1.92232 80.4853
lradius 32.1572
lwrist -7.07658
lhand -27.3188 33.8615
lfingers 7.12502
lthumb -0.727961 63.84
rfemur 12.125 -7.75912 22.355
rtibia 33.3992
rfoot -27.3361 -28.4115
rtoes -18.7976
lfemur -67.9655 29.5871 -5.71168
ltibia 74.0357
lfoot -8.76798 0.855872
ltoes 16.8102
2501
root -3.58851 14.3138 -43.0397 12.9402 -25.2536 -20.8604
lowerback 9.70459 3.21866 11.8819
upperback -2.60119 6.13752 4.69105
thorax -7.57289 2.53139 -2.55663
lowerneck -1.35431 2.39065 -2.00811
upperneck 6.51792 2.99604 4.41066
head 2.19034 1.55477 1.81956
rclavicle -3.35449e-014 1.86858e-014
rhumerus -48.5969 13.6718 -78.9364
rradius 47.165
rwrist 14.3929
rhand -3.5384 -46.3498
rfingers 7.12502
rthumb 22.1972 -75.0953
lclavicle -3.35449e-014 1.86858e-014
lhumerus -25.5811 1.94956 80.508
lradius 32.0981
lwrist -7.30125
lhand -25.9679 35.3639
lfingers 7.12502
lthumb 0.576713 65.3429
rfemur 12.0995 -7.81156 22.2846
rtibia 33.4764
rfoot -27.381 -28.3871
rtoes -18.8685
lfemur -68.0203 29.6212 -5.79988
ltibia 74.0929
lfoot -8.83973 0.727831
ltoes 16.9416
2502
root -3.58987 14.309 -43.0368 12.9122 -25.22 -20.806
lowerback 9.65941 3.21946 11.844
upperback -2.5867 6.12378 4.677
thorax -7.53408 2.52918 -2.54572
lowerneck -1.44501 2.3652 -1.95849
upperneck 6.56627 2.95952 4.41291
head 2.22451 1.53905 1.81384
rclavicle -6.70898e-014 -2.22639e-014
rhumerus -48.5197 13.6483 -78.9086
rradius 47.1077
rwrist 14.3021
rhand -3.49076 -46.5598
rfingers 7.12502
rthumb 22.2429 -75.2998
lclavicle -6.70898e-014 -2.22639e-014
lhumerus -25.6972 2.02331 80.5188
lradius 32.2452
lwrist -7.56646
lhand -25.8388 35.4743
lfingers 7.12502
lthumb 0.701445 65.4529
rfemur 12.0925 -7.8462 22.226
rtibia 33.5393
rfoot -27.4503 -28.376
rtoes -18.9093
lfemur -68.086 29.682 -5.89809
ltibia 74.1448
lfoot -8.87314 0.559474
ltoes 17.1936
2503
root -3.59193 14.3058 -43.0333 12.8784 -25.1976 -20.7318
lowerback 9.61728 3.21612 11.7787
upperback -2.58869 6.10363 4.66003
thorax -7.51809 2.52331 -2.52311
lowerneck -1.47081 2.34127 -1.9201
upperneck 6.58443 2.92574 4.41216
head 2.2368 1.5235 1.80712
rclavicle 7.43703e-014 3.06128e-014
rhumerus -48.4884 13.6727 -78.9183
rradius 47.057
rwrist 14.2119
rhand -3.09276 -47.1388
rfingers 7.12502
rthumb 22.6249 -75.8328
lclavicle 7.43703e-014 3.06128e-014
lhumerus -25.7551 2.10457 80.5187
lradius 32.194
lwrist -7.84537
lhand -25.7012 35.3619
lfingers 7.12502
lthumb 0.834321 65.34
rfemur 12.0982 -7.89843 22.1328
rtibia 33.5967
rfoot -27.6274 -28.2573
rtoes -18.8098
lfemur -68.1328 29.745 -6.02389
ltibia 74.1755
lfoot -8.95281 0.470484
ltoes 17.2564
